Coordinates
version=1
nRows=21
nColumns=22
inDegrees=yes

Units are S.I. units (second, meters, Newtons, ...)
If the header above contains a line with 'inDegrees', this indicates whether rotational values are in degrees (yes) or radians (no).

endheader
time	pelvis_tilt	pelvis_list	pelvis_rotation	pelvis_tx	pelvis_ty	pelvis_tz	hip_flexion_r	hip_adduction_r	hip_rotation_r	knee_angle_r	ankle_angle_r	subtalar_angle_r	hip_flexion_l	hip_adduction_l	hip_rotation_l	knee_angle_l	ankle_angle_l	subtalar_angle_l	lumbar_extension	lumbar_bending	lumbar_rotation
      5.79000000	     -0.44798515	     -4.26120847	    285.74155066	     -0.46653682	      0.91323442	      0.62380172	     -8.04728328	     -7.01272820	     -3.12973451	    -44.65515364	    -13.31308501	     20.20909364	     16.93893325	     -3.62873406	    -38.13035796	    -25.25325583	      5.29481229	    -17.10761090	     -5.37360388	     -4.84449310	     13.74789636
      5.80000000	     -0.45568072	     -4.24588389	    286.61763447	     -0.46036634	      0.91408045	      0.63038591	     -6.39002275	     -6.88414290	     -2.19465897	    -47.69016255	    -15.00550573	     19.78929709	     16.52707671	     -3.19748821	    -37.34834947	    -25.27856022	      5.60831351	    -16.70384952	     -5.31772951	     -4.76815373	     13.31535974
      5.81000000	     -0.41474183	     -4.22721585	    287.51253172	     -0.45433217	      0.91479591	      0.63675088	     -4.68536897	     -6.76243390	     -1.35028569	    -50.68082284	    -16.29974446	     19.15502734	     16.06778958	     -2.71350723	    -36.62625147	    -25.22175754	      5.96420658	    -16.29754588	     -5.29028579	     -4.75473261	     12.87981570
      5.82000000	     -0.31421941	     -4.21055207	    288.43651763	     -0.44838809	      0.91544533	      0.64292426	     -2.98203156	     -6.66852465	     -0.61966025	    -53.54865702	    -17.17641702	     18.37771335	     15.54378833	     -2.15943925	    -35.93892484	    -25.06786071	      6.32383116	    -15.90864610	     -5.29829087	     -4.81080821	     12.43520989
      5.83000000	     -0.15279773	     -4.21451717	    289.39937120	     -0.44250790	      0.91611996	      0.64894596	     -1.33879216	     -6.60375249	     -0.00590506	    -56.22049105	    -17.67031080	     17.59647390	     14.92945726	     -1.53980186	    -35.26423527	    -24.80968008	      6.66251528	    -15.56087595	     -5.36018250	     -4.92946412	     11.96518582
      5.84000000	      0.04664293	     -4.23634414	    290.40348152	     -0.43666911	      0.91683991	      0.65481356	      0.23938285	     -6.56209499	      0.47860793	    -58.65991775	    -17.82238080	     16.83583218	     14.24851252	     -0.88583164	    -34.57070634	    -24.48173287	      6.98457511	    -15.23280134	     -5.46400402	     -5.08182315	     11.51091190
      5.85000000	      0.27598168	     -4.26150025	    291.47827998	     -0.43076744	      0.91766180	      0.66055329	      1.73314095	     -6.54342996	      0.83933195	    -60.81168752	    -17.72439005	     16.33793732	     13.49667147	     -0.18009013	    -33.81704364	    -24.03210186	      7.23570073	    -14.95497174	     -5.58493847	     -5.25154662	     10.97016434
      5.86000000	      0.49992012	     -4.28125079	    292.59516150	     -0.42486604	      0.91852925	      0.66613174	      3.18605376	     -6.53780223	      1.07409040	    -62.69655317	    -17.41870705	     15.83360645	     12.73318036	      0.51205157	    -32.99704548	    -23.55477151	      7.47047783	    -14.64565022	     -5.70317586	     -5.41360101	     10.47882549
      5.87000000	      0.70602641	     -4.30248191	    293.81193456	     -0.41884015	      0.91950404	      0.67153748	      4.55458642	     -6.52716828	      1.17126011	    -64.26433274	    -16.96528006	     15.65748989	     11.94160010	      1.19925683	    -32.04908321	    -23.00558281	      7.61358258	    -14.40208613	     -5.82248459	     -5.53708092	      9.89571888
      5.88000000	      0.87555023	     -4.30695592	    295.09535531	     -0.41274807	      0.92051495	      0.67674647	      5.88946285	     -6.51363028	      1.15438178	    -65.54309942	    -16.39989743	     15.52566959	     11.16917578	      1.84577529	    -31.00290479	    -22.44144381	      7.72276434	    -14.13589713	     -5.91340582	     -5.61698122	      9.30866561
      5.89000000	      0.99315714	     -4.30472884	    296.46406518	     -0.40655901	      0.92157338	      0.68177132	      7.17244640	     -6.48143182	      1.01935618	    -66.51842461	    -15.72473602	     15.48612854	     10.40791730	      2.43404870	    -29.85456974	    -21.85381993	      7.80067346	    -13.89449229	     -5.97477080	     -5.63151133	      8.66540409
      5.90000000	      1.07144566	     -4.30736159	    297.90467220	     -0.40037088	      0.92263495	      0.68652989	      8.40938243	     -6.43227534	      0.80581348	    -67.22385997	    -14.93194464	     15.48472019	      9.67982987	      2.95226128	    -28.59779901	    -21.31263515	      7.86998983	    -13.67527538	     -6.04194253	     -5.59918795	      8.02196308
      5.91000000	      1.08704030	     -4.28952395	    299.42815888	     -0.39411552	      0.92368009	      0.69105138	      9.62692419	     -6.37494917	      0.49038764	    -67.64228334	    -14.14576729	     15.35829929	      8.98726633	      3.41176789	    -27.22699615	    -20.73858127	      7.84072780	    -13.38243357	     -6.05964151	     -5.50198485	      7.32874994
      5.92000000	      1.07227504	     -4.29962462	    301.00585825	     -0.38789450	      0.92470362	      0.69534565	     10.76992074	     -6.30230173	      0.12924890	    -67.79908072	    -13.21214315	     15.22693161	      8.29930971	      3.79096513	    -25.81724372	    -20.20564880	      7.86249819	    -13.14310577	     -6.10044118	     -5.35715852	      6.62439520
      5.93000000	      1.04006395	     -4.33331383	    302.62426246	     -0.38173965	      0.92568455	      0.69941925	     11.84683055	     -6.22450430	     -0.25507881	    -67.70999305	    -12.19818154	     14.99756440	      7.61341318	      4.10587305	    -24.35926390	    -19.70272775	      7.89197448	    -12.90049482	     -6.16525595	     -5.18257406	      5.92011221
      5.94000000	      1.00548121	     -4.39106169	    304.26979523	     -0.37563004	      0.92662075	      0.70330803	     12.84384232	     -6.16105459	     -0.65635545	    -67.37549044	    -11.10337435	     14.66751220	      6.91102905	      4.36814410	    -22.90073515	    -19.21085382	      7.93742604	    -12.65126728	     -6.25657510	     -4.98750049	      5.21906430
      5.95000000	      0.98038192	     -4.46013609	    305.93685256	     -0.36959388	      0.92749349	      0.70701819	     13.77339458	     -6.12407032	     -1.06103680	    -66.81463742	    -10.00274047	     14.35477246	      6.20304573	      4.59676096	    -21.41424604	    -18.73369507	      7.97921672	    -12.43015872	     -6.37014949	     -4.79282779	      4.53456145
      5.96000000	      0.97675546	     -4.53726449	    307.61225908	     -0.36364195	      0.92829831	      0.71058028	     14.62911916	     -6.12003554	     -1.45463067	    -66.03683668	     -8.90461614	     14.02366963	      5.48336457	      4.79979716	    -19.92028697	    -18.27264317	      8.02435098	    -12.21176587	     -6.51196020	     -4.61266122	      3.86011463
      5.97000000	      0.98745099	     -4.59586996	    309.29634572	     -0.35777812	      0.92900032	      0.71400399	     15.43912875	     -6.15967658	     -1.84044845	    -65.05656014	     -7.88931423	     13.75221296	      4.77892154	      4.99184784	    -18.39324380	    -17.82391977	      8.05746924	    -12.02640661	     -6.65313722	     -4.45888075	      3.19033465
      5.98000000	      1.04966394	     -4.67945941	    310.96504169	     -0.35199126	      0.92968584	      0.71737292	     16.11945650	     -6.24064673	     -2.22234067	    -63.86125555	     -6.83495416	     13.27943300	      4.01517347	      5.16450518	    -16.91701829	    -17.37950649	      8.11134805	    -11.79061712	     -6.85471193	     -4.33274554	      2.54507761
      5.99000000	      1.12017286	     -4.72506603	    312.63664703	     -0.34628970	      0.93026571	      0.72063774	     16.76178906	     -6.36905868	     -2.60602180	    -62.47365835	     -5.93394989	     12.89546202	      3.27925503	      5.33500280	    -15.39250102	    -16.93700803	      8.14030640	    -11.60801111	     -7.03806719	     -4.24120546	      1.89540806
